<svg xmlns="http://www.w3.org/2000/svg" xmlns:xlink="http://www.w3.org/1999/xlink" width="500" zoomAndPan="magnify" viewBox="0 0 375 374.999991" height="500" preserveAspectRatio="xMidYMid meet" version="1.2"><defs/><g id="ad4a572fc5"><g style="fill:#ffffff;fill-opacity:1;"><g transform="translate(75.960141, 203.699987)"><path style="stroke:none" d="M 33.953125 -22.015625 L 25.515625 -22.015625 C 25.410156 -22.878906 25.179688 -23.660156 24.828125 -24.359375 C 24.484375 -25.054688 24.023438 -25.648438 23.453125 -26.140625 C 22.878906 -26.640625 22.203125 -27.019531 21.421875 -27.28125 C 20.640625 -27.539062 19.773438 -27.671875 18.828125 -27.671875 C 17.148438 -27.671875 15.707031 -27.257812 14.5 -26.4375 C 13.289062 -25.625 12.363281 -24.441406 11.71875 -22.890625 C 11.070312 -21.335938 10.75 -19.460938 10.75 -17.265625 C 10.75 -14.972656 11.078125 -13.050781 11.734375 -11.5 C 12.398438 -9.957031 13.328125 -8.796875 14.515625 -8.015625 C 15.710938 -7.234375 17.132812 -6.84375 18.78125 -6.84375 C 19.695312 -6.84375 20.535156 -6.957031 21.296875 -7.1875 C 22.054688 -7.425781 22.722656 -7.773438 23.296875 -8.234375 C 23.878906 -8.691406 24.359375 -9.25 24.734375 -9.90625 C 25.109375 -10.5625 25.367188 -11.304688 25.515625 -12.140625 L 33.953125 -12.09375 C 33.804688 -10.5625 33.363281 -9.050781 32.625 -7.5625 C 31.882812 -6.082031 30.875 -4.734375 29.59375 -3.515625 C 28.3125 -2.296875 26.753906 -1.328125 24.921875 -0.609375 C 23.085938 0.109375 20.984375 0.46875 18.609375 0.46875 C 15.484375 0.46875 12.6875 -0.21875 10.21875 -1.59375 C 7.757812 -2.96875 5.8125 -4.972656 4.375 -7.609375 C 2.945312 -10.253906 2.234375 -13.472656 2.234375 -17.265625 C 2.234375 -21.054688 2.957031 -24.269531 4.40625 -26.90625 C 5.863281 -29.550781 7.828125 -31.5625 10.296875 -32.9375 C 12.773438 -34.3125 15.546875 -35 18.609375 -35 C 20.703125 -35 22.632812 -34.707031 24.40625 -34.125 C 26.1875 -33.550781 27.75 -32.707031 29.09375 -31.59375 C 30.445312 -30.488281 31.539062 -29.128906 32.375 -27.515625 C 33.21875 -25.910156 33.742188 -24.078125 33.953125 -22.015625 Z M 33.953125 -22.015625 "/></g></g><g style="fill:#ffffff;fill-opacity:1;"><g transform="translate(109.813719, 203.699987)"><path style="stroke:none" d="M 2.609375 0 L 2.609375 -34.515625 L 16.875 -34.515625 C 19.457031 -34.515625 21.6875 -34.050781 23.5625 -33.125 C 25.445312 -32.195312 26.898438 -30.867188 27.921875 -29.140625 C 28.953125 -27.421875 29.46875 -25.382812 29.46875 -23.03125 C 29.46875 -20.632812 28.941406 -18.597656 27.890625 -16.921875 C 26.847656 -15.253906 25.363281 -13.984375 23.4375 -13.109375 C 21.519531 -12.242188 19.25 -11.8125 16.625 -11.8125 L 7.609375 -11.8125 L 7.609375 -18.390625 L 15.0625 -18.390625 C 16.320312 -18.390625 17.375 -18.554688 18.21875 -18.890625 C 19.070312 -19.222656 19.71875 -19.726562 20.15625 -20.40625 C 20.59375 -21.082031 20.8125 -21.957031 20.8125 -23.03125 C 20.8125 -24.09375 20.59375 -24.972656 20.15625 -25.671875 C 19.71875 -26.378906 19.070312 -26.910156 18.21875 -27.265625 C 17.363281 -27.617188 16.3125 -27.796875 15.0625 -27.796875 L 10.953125 -27.796875 L 10.953125 0 Z M 22.046875 -15.78125 L 30.640625 0 L 21.546875 0 L 13.109375 -15.78125 Z M 22.046875 -15.78125 "/></g></g><g style="fill:#ffffff;fill-opacity:1;"><g transform="translate(138.998715, 203.699987)"><path style="stroke:none" d="M 23.5 -34.515625 L 31.828125 -34.515625 L 31.828125 -12.25 C 31.828125 -9.675781 31.210938 -7.4375 29.984375 -5.53125 C 28.765625 -3.632812 27.054688 -2.164062 24.859375 -1.125 C 22.671875 -0.0820312 20.128906 0.4375 17.234375 0.4375 C 14.296875 0.4375 11.726562 -0.0820312 9.53125 -1.125 C 7.34375 -2.164062 5.640625 -3.632812 4.421875 -5.53125 C 3.210938 -7.4375 2.609375 -9.675781 2.609375 -12.25 L 2.609375 -34.515625 L 10.953125 -34.515625 L 10.953125 -12.984375 C 10.953125 -11.785156 11.210938 -10.71875 11.734375 -9.78125 C 12.265625 -8.851562 13 -8.125 13.9375 -7.59375 C 14.882812 -7.070312 15.984375 -6.8125 17.234375 -6.8125 C 18.472656 -6.8125 19.5625 -7.070312 20.5 -7.59375 C 21.4375 -8.125 22.171875 -8.851562 22.703125 -9.78125 C 23.234375 -10.71875 23.5 -11.785156 23.5 -12.984375 Z M 23.5 -34.515625 "/></g></g><g style="fill:#ffffff;fill-opacity:1;"><g transform="translate(171.200591, 203.699987)"><path style="stroke:none" d="M 15.375 0 L 2.609375 0 L 2.609375 -34.515625 L 15.359375 -34.515625 C 18.878906 -34.515625 21.910156 -33.828125 24.453125 -32.453125 C 26.992188 -31.078125 28.957031 -29.097656 30.34375 -26.515625 C 31.726562 -23.941406 32.421875 -20.863281 32.421875 -17.28125 C 32.421875 -13.6875 31.726562 -10.59375 30.34375 -8 C 28.96875 -5.414062 27.003906 -3.4375 24.453125 -2.0625 C 21.910156 -0.6875 18.882812 0 15.375 0 Z M 10.953125 -7.109375 L 15.046875 -7.109375 C 16.984375 -7.109375 18.625 -7.4375 19.96875 -8.09375 C 21.3125 -8.75 22.328125 -9.820312 23.015625 -11.3125 C 23.710938 -12.800781 24.0625 -14.789062 24.0625 -17.28125 C 24.0625 -19.757812 23.710938 -21.738281 23.015625 -23.21875 C 22.316406 -24.695312 21.289062 -25.765625 19.9375 -26.421875 C 18.582031 -27.078125 16.914062 -27.40625 14.9375 -27.40625 L 10.953125 -27.40625 Z M 10.953125 -7.109375 "/></g></g><g style="fill:#ffffff;fill-opacity:1;"><g transform="translate(203.621575, 203.699987)"><path style="stroke:none" d="M 35.203125 -17.265625 C 35.203125 -13.460938 34.46875 -10.238281 33 -7.59375 C 31.539062 -4.957031 29.566406 -2.953125 27.078125 -1.578125 C 24.585938 -0.210938 21.800781 0.46875 18.71875 0.46875 C 15.613281 0.46875 12.816406 -0.21875 10.328125 -1.59375 C 7.847656 -2.976562 5.878906 -4.988281 4.421875 -7.625 C 2.960938 -10.257812 2.234375 -13.472656 2.234375 -17.265625 C 2.234375 -21.054688 2.960938 -24.269531 4.421875 -26.90625 C 5.878906 -29.550781 7.847656 -31.5625 10.328125 -32.9375 C 12.816406 -34.3125 15.613281 -35 18.71875 -35 C 21.800781 -35 24.585938 -34.3125 27.078125 -32.9375 C 29.566406 -31.5625 31.539062 -29.550781 33 -26.90625 C 34.46875 -24.269531 35.203125 -21.054688 35.203125 -17.265625 Z M 26.671875 -17.265625 C 26.671875 -19.515625 26.351562 -21.410156 25.71875 -22.953125 C 25.082031 -24.503906 24.171875 -25.675781 22.984375 -26.46875 C 21.796875 -27.269531 20.375 -27.671875 18.71875 -27.671875 C 17.0625 -27.671875 15.632812 -27.269531 14.4375 -26.46875 C 13.25 -25.675781 12.335938 -24.503906 11.703125 -22.953125 C 11.066406 -21.410156 10.75 -19.515625 10.75 -17.265625 C 10.75 -15.015625 11.066406 -13.113281 11.703125 -11.5625 C 12.335938 -10.007812 13.25 -8.832031 14.4375 -8.03125 C 15.632812 -7.238281 17.0625 -6.84375 18.71875 -6.84375 C 20.375 -6.84375 21.796875 -7.238281 22.984375 -8.03125 C 24.171875 -8.832031 25.082031 -10.007812 25.71875 -11.5625 C 26.351562 -13.113281 26.671875 -15.015625 26.671875 -17.265625 Z M 26.671875 -17.265625 "/></g></g><g style="fill:#ffffff;fill-opacity:1;"><g transform="translate(238.823485, 203.699987)"><path style="stroke:none" d="M 7.25 0.484375 C 6.03125 0.484375 4.988281 0.0546875 4.125 -0.796875 C 3.269531 -1.648438 2.847656 -2.679688 2.859375 -3.890625 C 2.847656 -5.085938 3.269531 -6.109375 4.125 -6.953125 C 4.988281 -7.796875 6.03125 -8.21875 7.25 -8.21875 C 8.394531 -8.21875 9.40625 -7.796875 10.28125 -6.953125 C 11.164062 -6.109375 11.613281 -5.085938 11.625 -3.890625 C 11.613281 -3.085938 11.40625 -2.351562 11 -1.6875 C 10.59375 -1.019531 10.054688 -0.488281 9.390625 -0.09375 C 8.734375 0.289062 8.019531 0.484375 7.25 0.484375 Z M 7.25 0.484375 "/></g></g><g style="fill:#ffffff;fill-opacity:1;"><g transform="translate(251.070104, 203.699987)"><path style="stroke:none" d="M 10.078125 0 L 1.109375 0 L 12.765625 -34.515625 L 23.875 -34.515625 L 35.515625 0 L 26.546875 0 L 18.4375 -25.828125 L 18.171875 -25.828125 Z M 8.890625 -13.59375 L 27.625 -13.59375 L 27.625 -7.25 L 8.890625 -7.25 Z M 8.890625 -13.59375 "/></g></g><g style="fill:#ffffff;fill-opacity:1;"><g transform="translate(285.46302, 203.699987)"><path style="stroke:none" d="M 10.953125 -34.515625 L 10.953125 0 L 2.609375 0 L 2.609375 -34.515625 Z M 10.953125 -34.515625 "/></g></g></g></svg>