<svg width="44" height="44" viewBox="0 0 44 44" fill="none" xmlns="http://www.w3.org/2000/svg">
<path d="M22.0551 13.998C20.2446 13.998 19.3876 15.0057 19.084 18.6808H24.5225V18.3277C24.473 16.164 24.2706 13.998 22.0551 13.998Z" fill="url(#paint0_linear_1933_17340)"/>
<path d="M22.7526 0H0V22.7526C0 34.1874 9.27107 43.4584 20.7058 43.4584H43.4562V20.7058C43.4584 9.26882 34.1874 0 22.7526 0ZM35.2962 24.8241H19.1854C19.741 28.0966 21.4526 28.4992 24.1201 28.4992C25.8834 28.4992 27.694 27.7435 30.0107 26.1331L34.5427 32.1744C31.8235 34.3381 27.9459 36.3038 23.0135 36.3038C12.5931 36.3038 7.90808 30.0084 7.90808 21.7022C7.90808 13.9493 12.4402 7.15236 21.8552 7.15236C29.9589 7.15236 35.5481 12.2377 35.5481 21.4503C35.5504 22.3073 35.4491 23.767 35.2962 24.8241Z" fill="url(#paint1_linear_1933_17340)"/>
<defs>
<linearGradient id="paint0_linear_1933_17340" x1="19.0845" y1="16.3394" x2="24.5227" y2="16.3394" gradientUnits="userSpaceOnUse">
<stop stop-color="#1E7CE2"/>
<stop offset="1" stop-color="#9254F8"/>
</linearGradient>
<linearGradient id="paint1_linear_1933_17340" x1="0" y1="21.7278" x2="43.4577" y2="21.7278" gradientUnits="userSpaceOnUse">
<stop stop-color="#1E7CE2"/>
<stop offset="1" stop-color="#9254F8"/>
</linearGradient>
</defs>
</svg>
